<svg width="41" height="40" viewBox="0 0 41 40" fill="none" xmlns="http://www.w3.org/2000/svg">
<path d="M17.1201 21.8461C16.0801 21.8461 15.2321 20.9011 15.2321 19.7451C15.2321 18.5891 16.0591 17.6431 17.1211 17.6431C18.1711 17.6431 19.0311 18.5881 19.0101 19.7451C19.0101 20.9011 18.1711 21.8461 17.1201 21.8461ZM24.0941 21.8451C23.0541 21.8451 22.2041 20.9001 22.2041 19.7441C22.2041 18.5881 23.0331 17.6421 24.0941 17.6421C25.1441 17.6421 26.0041 18.5871 25.9841 19.7441C25.9841 20.9001 25.1551 21.8451 24.0941 21.8451ZM18.7251 12.3211L18.4171 11.7581L17.7831 11.8641C16.3464 12.1042 14.9481 12.5346 13.6251 13.1441L13.3971 13.2491L13.2551 13.4591C10.6421 17.3121 9.92506 21.1071 10.2801 24.8341L10.3191 25.2411L10.6491 25.4811C12.1862 26.6091 13.9031 27.4689 15.7271 28.0241L16.5171 28.2661L17.6301 25.5501C19.5401 26.0221 21.6601 26.0221 23.5691 25.5501L24.6761 28.2671L25.4661 28.0251C27.2916 27.4713 29.0095 26.6107 30.5461 25.4801L30.8731 25.2421L30.9131 24.8401C31.3491 20.5201 30.2161 16.7571 27.9551 13.4561L27.8131 13.2481L27.5851 13.1441C26.2625 12.5372 24.8658 12.1068 23.4311 11.8641L22.8131 11.7611L22.4991 12.3031C22.4111 12.4531 22.3221 12.6231 22.2361 12.7961C21.1512 12.6849 20.0579 12.6849 18.9731 12.7961C18.8881 12.6261 18.8031 12.4621 18.7251 12.3211ZM15.3151 24.6101C15.5121 24.7241 15.7201 24.8361 15.9251 24.9381L15.4761 26.0341C14.2616 25.5916 13.1093 24.9939 12.0481 24.2561C11.8231 21.1181 12.4611 17.9511 14.6121 14.6861C15.5199 14.2866 16.4662 13.9807 17.4361 13.7731C17.4961 13.8981 17.5521 14.0211 17.5981 14.1291L17.8711 14.7721L18.5631 14.6711C19.9191 14.4723 21.297 14.4723 22.6531 14.6711L23.3431 14.7711L23.6151 14.1291C23.6621 14.0171 23.7171 13.8951 23.7751 13.7731C24.7521 13.9831 25.6981 14.2931 26.6031 14.6881C28.4781 17.5081 29.4241 20.6541 29.1491 24.2551C28.0872 24.9935 26.9343 25.5914 25.7191 26.0341L25.2741 24.9391C25.4801 24.8371 25.6881 24.7251 25.8871 24.6101C26.3771 24.3281 26.9041 23.9761 27.2401 23.6401L25.9601 22.3601C25.7971 22.5241 25.4371 22.7801 24.9831 23.0421C24.5391 23.2981 24.0981 23.5051 23.8161 23.5981C21.8131 24.2611 19.3881 24.2611 17.3841 23.5981C17.1031 23.5051 16.6621 23.2981 16.2181 23.0421C15.7641 22.7811 15.4041 22.5241 15.2401 22.3601L13.9601 23.6401C14.2971 23.9761 14.8251 24.3281 15.3151 24.6101Z" fill="#358BB9"/>
</svg>
