<svg width="40" height="40" viewBox="0 0 40 40" fill="none" xmlns="http://www.w3.org/2000/svg">
<path fill-rule="evenodd" clip-rule="evenodd" d="M13 14C12.7348 14 12.4804 14.1054 12.2929 14.2929C12.2197 14.3661 12.159 14.4494 12.1123 14.5397L20 19.7981L27.8877 14.5397C27.841 14.4494 27.7803 14.3661 27.7071 14.2929C27.5196 14.1054 27.2652 14 27 14H13ZM28 16.8685L20.5547 21.8321C20.2188 22.056 19.7812 22.056 19.4453 21.8321L12 16.8685V25C12 25.2652 12.1054 25.5196 12.2929 25.7071C12.4804 25.8946 12.7348 26 13 26H27C27.2652 26 27.5196 25.8946 27.7071 25.7071C27.8946 25.5196 28 25.2652 28 25V16.8685ZM10.8787 12.8787C11.4413 12.3161 12.2044 12 13 12H27C27.7957 12 28.5587 12.3161 29.1213 12.8787C29.6839 13.4413 30 14.2043 30 15V25C30 25.7957 29.6839 26.5587 29.1213 27.1213C28.5587 27.6839 27.7957 28 27 28H13C12.2043 28 11.4413 27.6839 10.8787 27.1213C10.3161 26.5587 10 25.7956 10 25V15C10 14.2044 10.3161 13.4413 10.8787 12.8787Z" fill="#358BB9"/>
</svg>
