<svg width="41" height="40" viewBox="0 0 41 40" fill="none" xmlns="http://www.w3.org/2000/svg">
<path fill-rule="evenodd" clip-rule="evenodd" d="M19.334 10.9341C20.4124 9.8558 21.8749 9.25 23.3999 9.25H26.3999C26.8141 9.25 27.1499 9.58579 27.1499 10V14C27.1499 14.4142 26.8141 14.75 26.3999 14.75H23.3999C23.3336 14.75 23.27 14.7763 23.2231 14.8232C23.1762 14.8701 23.1499 14.9337 23.1499 15V17.25H26.3999C26.6309 17.25 26.8489 17.3564 26.9911 17.5384C27.1332 17.7205 27.1835 17.9578 27.1275 18.1819L26.1275 22.1819C26.044 22.5158 25.7441 22.75 25.3999 22.75H23.1499V30C23.1499 30.4142 22.8141 30.75 22.3999 30.75H18.3999C17.9857 30.75 17.6499 30.4142 17.6499 30V22.75H15.3999C14.9857 22.75 14.6499 22.4142 14.6499 22V18C14.6499 17.5858 14.9857 17.25 15.3999 17.25H17.6499V15C17.6499 13.475 18.2557 12.0125 19.334 10.9341ZM23.3999 10.75C22.2727 10.75 21.1917 11.1978 20.3947 11.9948C19.5977 12.7918 19.1499 13.8728 19.1499 15V18C19.1499 18.4142 18.8141 18.75 18.3999 18.75H16.1499V21.25H18.3999C18.8141 21.25 19.1499 21.5858 19.1499 22V29.25H21.6499V22C21.6499 21.5858 21.9857 21.25 22.3999 21.25H24.8143L25.4393 18.75H22.3999C21.9857 18.75 21.6499 18.4142 21.6499 18V15C21.6499 14.5359 21.8343 14.0908 22.1625 13.7626C22.4907 13.4344 22.9358 13.25 23.3999 13.25H25.6499V10.75H23.3999Z" fill="#73B6D2"/>
</svg>
