<svg width="41" height="40" viewBox="0 0 41 40" fill="none" xmlns="http://www.w3.org/2000/svg">
<g clip-path="url(#clip0_3364_960)">
<path d="M20.8 10C26.323 10 30.8 14.477 30.8 20C30.8 25.523 26.323 30 20.8 30C19.098 30.0024 17.4238 29.5686 15.937 28.74L15.632 28.562L12.6 29.454C12.4351 29.5026 12.2604 29.5083 12.0926 29.4705C11.9248 29.4327 11.7694 29.3526 11.6412 29.238C11.513 29.1233 11.4162 28.9778 11.36 28.8152C11.3038 28.6526 11.29 28.4784 11.32 28.309L11.346 28.2L12.238 25.168C11.2951 23.6093 10.7977 21.8218 10.8 20C10.8 14.477 15.277 10 20.8 10ZM20.8 12C19.3677 11.9997 17.9615 12.3841 16.7284 13.1128C15.4953 13.8416 14.4804 14.888 13.7898 16.1429C13.0992 17.3978 12.7582 18.8151 12.8024 20.2468C12.8466 21.6785 13.2744 23.0721 14.041 24.282C14.239 24.594 14.324 24.978 14.257 25.359L14.218 25.522L13.777 27.023L15.278 26.582C15.711 26.454 16.161 26.532 16.518 26.759C17.5664 27.4228 18.7547 27.8336 19.9892 27.959C21.2236 28.0844 22.4704 27.921 23.6308 27.4816C24.7912 27.0422 25.8334 26.3389 26.6752 25.4273C27.517 24.5157 28.1352 23.4208 28.4809 22.2291C28.8267 21.0374 28.8905 19.7817 28.6673 18.5611C28.4441 17.3405 27.9401 16.1886 27.195 15.1964C26.45 14.2042 25.4844 13.3988 24.3745 12.8441C23.2646 12.2893 22.0409 12.0004 20.8 12ZM17.902 15.184C18.0129 15.1365 18.1341 15.1185 18.2539 15.1317C18.3737 15.1448 18.4881 15.1887 18.586 15.259C19.09 15.627 19.49 16.121 19.834 16.603L20.161 17.077L20.314 17.302C20.4027 17.431 20.4462 17.5856 20.4379 17.7418C20.4295 17.8981 20.3698 18.0472 20.268 18.166L20.193 18.242L19.269 18.928C19.2251 18.9606 19.1942 19.0078 19.1819 19.0611C19.1696 19.1145 19.1768 19.1705 19.202 19.219C19.412 19.599 19.783 20.166 20.209 20.592C20.636 21.018 21.229 21.414 21.635 21.647C21.723 21.697 21.829 21.681 21.901 21.616L21.939 21.571L22.54 20.656C22.6502 20.5088 22.8132 20.4101 22.9947 20.3806C23.1761 20.3512 23.362 20.3932 23.513 20.498L24.056 20.877C24.596 21.262 25.115 21.676 25.526 22.201C25.6021 22.2997 25.6504 22.4168 25.6661 22.5404C25.6817 22.664 25.6641 22.7895 25.615 22.904C25.219 23.828 24.216 24.615 23.174 24.577L23.015 24.567L22.824 24.549L22.716 24.535L22.478 24.495C21.554 24.321 20.073 23.797 18.538 22.263C17.004 20.728 16.48 19.247 16.306 18.323L16.266 18.085L16.241 17.877L16.228 17.702L16.224 17.627C16.186 16.583 16.977 15.58 17.902 15.184Z" fill="#358BB9"/>
</g>
<defs>
<clipPath id="clip0_3364_960">
<rect width="24" height="24" fill="white" transform="translate(8.80005 8)"/>
</clipPath>
</defs>
</svg>
